<svg width="539" height="148" viewBox="0 0 539 148" fill="none" xmlns="http://www.w3.org/2000/svg">
<path d="M534.313 127.658L536.5 127.382V125.178V76.6161V22.8223V20.6178L534.313 20.3419L474.684 12.8206L474.636 12.8145L474.587 12.8103C449.456 10.6313 397.877 6.17118 392.778 5.77756L392.586 8.27014L392.778 5.77756C387.63 5.3801 336.856 3.42638 312.197 2.50176L312.15 2.5H312.103H235.042H194.476C190.114 2.5 173.329 3.65667 156.928 4.96047C140.568 6.26099 124.124 7.7435 120.529 8.43072C118.417 8.83444 113.884 9.40042 108.29 10.0988C105.066 10.5014 101.49 10.9479 97.8217 11.4327C88.0137 12.7289 77.474 14.3083 72.3073 16.0367C67.4004 17.6782 60.9012 19.9345 55.0303 22.0901C49.224 24.222 43.8505 26.3205 41.3197 27.6342C38.6947 28.9969 31.1789 34.139 23.8223 41.0036C16.8104 47.5466 9.46728 56.0844 6.93079 64.8149L3.77514 66.5884L2.5 67.305V68.7678V71.0569V73.673V75.1357L3.77514 75.8524L6.93079 77.6259C9.46728 86.3564 16.8104 94.8942 23.8223 101.437C31.1789 108.302 38.6947 113.444 41.3197 114.807C43.8505 116.12 49.224 118.219 55.0303 120.351C60.9012 122.506 67.4004 124.763 72.3073 126.404C77.3603 128.094 87.9838 130.495 98.0418 132.611C108.165 134.741 117.917 136.625 121.344 137.28C124.88 137.956 141.044 140.012 157.246 141.886C173.405 143.756 190.055 145.5 194.476 145.5H235.042H312.103H312.15L312.197 145.498C336.856 144.574 387.63 142.62 392.778 142.222C397.877 141.829 449.456 137.369 474.587 135.19L474.636 135.186L474.684 135.179L534.313 127.658Z" fill="#F3D9FF" fill-opacity="0.4" stroke="#8C20E1" stroke-width="5"/>
</svg>
